<svg xmlns="http://www.w3.org/2000/svg" xml:space="preserve" width="1.42856in" height="1.4295in" version="1.1"
     style="shape-rendering:geometricPrecision; text-rendering:geometricPrecision; image-rendering:optimizeQuality; fill-rule:evenodd; clip-rule:evenodd"
     viewBox="0 0 443 443"
>
 <defs>
  <style type="text/css">
   <![CDATA[
    .str0 {stroke:#FEFEFE;stroke-width:7.85194}
    .fil1 {fill:none}
    .fil3 {fill:#FEFEFE}
    .fil0 {fill:#255A9E;fill-rule:nonzero}
    .fil2 {fill:white;fill-rule:nonzero}
   ]]>
  </style>
 </defs>
    <g id="Layer_x0020_1">
  <metadata id="CorelCorpID_0Corel-Layer"/>
        <g id="_761288800">
   <g>
    <g>
     <polygon class="fil0" points="0,0 375,0 375,443 0,443 "/>
    </g>
       <polyline class="fil1 str0" points="21,329 21,23 184,23 "/>
       <polyline class="fil1 str0" points="296,24 353,24 353,329 "/>
       <path class="fil2" d="M332 425l0 -58c0,-4 1,-8 2,-10 1,-2 4,-4 6,-4 3,-1 7,-1 13,-1 6,0 10,0 13,1 3,0 4,2 6,5 2,2 2,6 2,12l0 55c0,5 0,10 -2,12 -1,2 -3,4 -6,5 -3,0 -7,1 -13,1 -6,0 -10,-1 -13,-1 -3,-1 -5,-3 -6,-6 -2,-2 -2,-6 -2,-11zm21 -60l0 0c-2,0 -3,1 -3,5l0 53c0,3 0,4 0,6 1,0 2,1 3,1 2,0 2,0 3,-1 0,-2 0,-3 0,-7l0 -52c0,-3 -1,-5 -3,-5zm-311 3l0 0 0 15 -18 0 0 -14c0,-2 0,-3 -1,-3 0,-2 -1,-2 -1,-2 -2,0 -3,0 -3,2 -1,0 -1,2 -1,3l0 12c0,2 0,3 0,3 1,1 2,2 4,2l12 7c3,1 5,3 6,5 2,2 2,5 2,9l0 19c0,6 -1,10 -4,13 -2,3 -7,4 -13,4 -5,0 -9,0 -12,0 -3,-1 -5,-1 -7,-2 -2,-2 -4,-3 -4,-5 -2,-2 -2,-5 -2,-8l0 -23 18 0 0 20c0,3 1,5 3,5 2,0 3,-2 3,-5l0 -17c0,-2 0,-3 0,-4 0,0 -1,-1 -1,-1 -1,0 -2,-1 -4,-2l-11 -6c-3,-2 -5,-3 -6,-5 -2,-2 -2,-5 -2,-9l0 -15c0,-4 1,-7 2,-9 1,-2 4,-4 7,-5 3,0 7,-1 12,-1 5,0 10,1 13,1 3,1 4,2 6,5 2,2 2,6 2,11zm10 -16l0 0 19 0 0 91 -19 0 0 -91zm49 23l0 0 -3 37 3 0 3 0 -3 -40 0 3zm-13 -23l0 0 13 0 12 0 11 91 -18 0 -1 -19 -4 0 -4 0 -2 19 -17 0 10 -91zm89 0l0 0 0 91 -19 0 -10 -47 0 47 -16 0 0 -91 19 0 10 44 0 -44 16 0zm7 0l0 0 37 0 0 12 -9 0 0 79 -18 0 0 -79 -10 0 0 -12zm62 20l0 0 0 3 -3 37 3 0 3 0 -3 -40zm-12 -20l0 0 12 0 12 0 11 91 -18 0 -1 -19 -4 0 -4 0 -2 19 -17 0 11 -91zm88 0l0 0 0 91 -19 0 -10 -47 0 47 -16 0 0 -91 18 0 11 44 0 -44 16 0z"/>
       <g>
     <g>
      <path class="fil3" d="M221 16c0,0 -35,30 -75,157 -1,3 -12,15 -12,-3 0,-18 53,-130 87,-154z"/>
         <path class="fil3" d="M253 35c0,0 -35,30 -75,157 -1,3 -12,15 -12,-3 0,-18 53,-130 87,-154z"/>
         <path class="fil3" d="M288 55c0,0 -36,30 -75,156 -1,3 -13,15 -12,-3 0,-18 53,-130 87,-153z"/>
     </g>
           <g>
      <path class="fil3" d="M155 335c0,0 35,-30 74,-157 1,-3 13,-15 12,3 0,18 -53,130 -86,154z"/>
               <path class="fil3" d="M122 316c0,0 36,-30 75,-157 1,-3 13,-15 12,3 0,18 -53,130 -87,154z"/>
               <path class="fil3" d="M88 296c0,0 35,-30 74,-156 1,-3 13,-15 13,3 -1,18 -54,130 -87,153z"/>
     </g>
    </g>
   </g>
  </g>
        <g id="_761281312">
   <path class="fil0" d="M413 34c0,0 0,0 0,0 -1,-1 -3,-1 -5,-1l-3 0 0 13 -5 0 0 -32 11 0 2 0c3,0 5,1 6,1 2,1 3,2 4,3 2,2 2,3 2,5 0,2 -1,4 -3,6 -1,2 -4,3 -6,3 1,1 2,1 2,2 2,1 3,3 5,6l4 6 -6 0 -3 -5c-2,-3 -4,-5 -5,-7zm0 -15l0 0 -2 0 -6 0 0 9 7 0 1 0c2,0 4,0 5,-1 1,-1 1,-2 1,-4 0,-1 0,-2 0,-2 -1,-1 -2,-1 -2,-2 -1,0 -2,0 -4,0z"/>
            <path class="fil0" d="M413 55c4,0 8,-1 13,-4 4,-2 7,-5 9,-9 2,-4 3,-8 3,-12 0,-4 -1,-9 -3,-13 -2,-4 -5,-7 -9,-9 -5,-2 -9,-3 -13,-3 -4,0 -8,1 -12,3 -4,2 -7,5 -9,9 -2,4 -4,9 -4,13 0,4 2,8 3,12 3,4 6,7 10,9 4,3 8,4 12,4zm0 -55l0 0c5,0 10,1 15,4 5,2 8,6 11,11 3,5 4,10 4,15 0,5 -1,10 -4,15 -2,4 -6,8 -11,10 -5,3 -10,5 -15,5 -5,0 -10,-2 -14,-5 -5,-2 -9,-6 -12,-10 -2,-5 -4,-10 -4,-15 0,-5 2,-10 4,-15 3,-5 7,-9 12,-11 5,-3 9,-4 14,-4z"/>
  </g>
 </g>
</svg>
